<?xml version="1.0" encoding="UTF-8"?>
<svg width="268px" height="168px" viewBox="0 0 268 168" version="1.1" xmlns="http://www.w3.org/2000/svg" xmlns:xlink="http://www.w3.org/1999/xlink">
    <title>lilo-logo-baseline</title>
    <g id="Page-1" stroke="none" stroke-width="1" fill="none" fill-rule="evenodd">
        <g id="lilo-logo-baseline" fill-rule="nonzero">
            <path d="M68.736,26.616 C80.174,26.472 82.79,45.822 71.244,47.796 C66.299,48.641 62.775,44.884 61.769,41.664 C61.337,40.283 61.551,38.773 61.304,37.113 C61.103,35.757 61.015,34.008 61.398,32.746 C62.166,30.216 64.073,28.129 66.414,27.173 C67.188,26.987 67.962,26.802 68.736,26.616" id="Fill-1" fill="#86BC24"></path>
            <path d="M99.577,27.6373241 C105.938,27.599 107.057,30.908 107.938,36.462 C107.999,37.732 108.061,39.002 108.123,40.271 C108.092,42.5 108.061,44.73 108.03,46.959 C108.123,49.498 108.216,52.038 108.309,54.577 C108.402,57.147 108.495,59.717 108.588,62.287 C108.619,63.804 108.65,65.322 108.681,66.839 C109.628,73.088 108.69,79.865 109.609,85.882 C110.505,91.737 109.405,98.169 110.91,103.253 C113.311,111.366 122.402,111.885 131.626,113.286 C137.832,114.229 142.139,111.484 146.489,114.586 C152.377,118.787 151.193,128.115 144.816,130.843 C139.81,132.986 128.505,132.109 123.079,130.936 C104.401,126.898 95.626,120.962 92.146,101.581 C91.836,92.757 91.526,83.93 91.216,75.106 C91.247,70.555 91.278,66.002 91.309,61.451 C91.309,58.2 91.309,54.948 91.309,51.697 C91.371,49.035 91.433,46.371 91.495,43.708 C92.281,38.573 92.383,33.716 94.932,30.424 C96.16,28.839 97.603,28.555 99.577,27.6373241" id="Fill-2" fill="#036DC0"></path>
            <path d="M8.448,28.381 C18.916,28.489 17.366,39.623 17.365,50.025 C17.365,60.631 17.477,71.067 18.945,80.68 C18.976,82.011 19.007,83.343 19.038,84.674 C19.471,90.371 19.905,96.07 20.338,101.767 C21.98,109.75 27.472,112.069 35.666,113.472 C42.654,114.668 46.037,111.995 50.901,115.887 C56.75,120.568 53.647,129.628 47.742,131.865 C46.034,132.512 44.177,132.261 41.983,132.329 C35.975,132.516 30.277,131.798 25.819,130.193 C12.688,125.464 5.652,120.168 2.317,105.668 C2.193,104.12 2.069,102.572 1.945,101.024 C0.408,92.051 1.78,81.207 0.366,71.948 C-0.059,69.169 -0.145,63.455 0.273,60.708 C0.335,55.599 0.397,50.489 0.459,45.38 C0.459,40.891 0.026,35.318 1.759,32.468 C3.546,29.531 5.167,29.69 8.448,28.381" id="Fill-4" fill="#036DC0"></path>
            <path d="M69.2,60.15 C73.233,60.305 76.16,62.41 77.375,65.352 C79.301,70.014 77.433,77.706 78.304,83.467 C78.366,88.142 78.428,92.819 78.49,97.493 C78.737,102.107 78.986,106.722 79.233,111.335 C79.326,113.1 79.419,114.866 79.512,116.63 C80.81,125.271 78.754,131.309 71.523,132.515 C65.951,133.444 62.027,128.492 61.304,124.34 C61.243,121.43 61.181,118.519 61.119,115.609 C60.995,112.481 60.871,109.353 60.747,106.226 C60.245,102.906 60.027,98.011 60.561,94.521 C60.623,89.785 60.685,85.045 60.747,80.308 C61.586,74.842 60.076,68.298 62.419,64.424 C63.341,62.9 64.97,61.414 66.693,60.708 C67.528,60.522 68.364,60.336 69.2,60.15" id="Fill-5" fill="#86BC24"></path>
            <path d="M210.926,0.713 C219.041,1.382 216.928,9.032 215.36,13.436 C214.453,15.984 213.484,23.636 209.889,24.525 C206.542,25.353 203.08,23.247 202.619,20.361 L202.664,18.706 C201.98,13.793 205.215,2.125 210.926,0.713" id="Fill-6" fill="#86BC24"></path>
            <path d="M258.347,29.813 C263.89,35.776 254.342,42.936 249.588,45.681 C246.837,47.269 244.309,49.843 240.891,48.221 C237.708,46.709 236.822,42.599 238.821,39.812 L240.199,38.419 C243.678,33.741 252.916,27.234 258.347,29.813" id="Fill-7" fill="#86BC24"></path>
            <path d="M267.69,84.473 C269.093,92.493 255.547,92.687 251.084,92.254 C248.501,92.003 245.666,92.689 243.948,89.428 C242.348,86.391 243.433,82.521 245.988,81.364 L247.53,80.998 C251.904,79.127 266.582,78.044 267.69,84.473" id="Fill-8" fill="#86BC24"></path>
            <path d="M21.689,155.775 C22.644,156.721 23.122,157.94 23.122,159.431 L23.122,167.272 L19.829,167.272 L19.829,160.11 C19.829,159.288 19.595,158.631 19.126,158.137 C18.656,157.642 18.07,157.395 17.366,157.395 C16.462,157.395 15.75,157.718 15.23,158.363 C14.711,159.008 14.451,159.967 14.451,161.241 L14.451,167.272 L11.134,167.272 L11.134,160.11 C11.134,159.288 10.899,158.631 10.43,158.137 C9.961,157.642 9.375,157.395 8.671,157.395 C7.766,157.395 7.063,157.713 6.56,158.35 C6.057,158.987 5.806,159.951 5.806,161.241 L5.806,167.272 L2.489,167.272 L2.489,154.732 L5.806,154.732 L5.806,155.762 C6.744,154.824 7.992,154.355 9.551,154.355 C11.36,154.355 12.734,155.041 13.672,156.415 C14.778,155.041 16.302,154.355 18.246,154.355 C19.587,154.355 20.734,154.828 21.689,155.775" id="Fill-10" fill="#036DC0"></path>
            <path d="M35.134,163.716 C35.855,163.021 36.215,162.12 36.215,161.014 C36.215,159.909 35.855,159.008 35.134,158.313 C34.414,157.618 33.593,157.27 32.672,157.27 C31.716,157.27 30.875,157.613 30.146,158.3 C29.417,158.987 29.052,159.892 29.052,161.014 C29.052,162.137 29.417,163.041 30.146,163.728 C30.875,164.415 31.716,164.759 32.672,164.759 C33.593,164.759 34.414,164.412 35.134,163.716 Z M37.459,156.277 C38.774,157.508 39.432,159.087 39.432,161.014 C39.432,162.941 38.774,164.52 37.459,165.751 C36.144,166.983 34.548,167.599 32.672,167.599 C30.761,167.599 29.145,166.983 27.821,165.751 C26.497,164.52 25.836,162.941 25.836,161.014 C25.836,159.087 26.497,157.508 27.821,156.277 C29.145,155.045 30.761,154.43 32.672,154.43 C34.548,154.43 36.144,155.045 37.459,156.277 L37.459,156.277 Z" id="Fill-11" fill="#036DC0"></path>
            <path d="M51.57,166.719 C50.414,167.339 49.325,167.649 48.303,167.649 C46.761,167.649 45.555,167.234 44.684,166.405 C43.813,165.576 43.377,164.324 43.377,162.648 L43.377,157.446 L40.688,157.446 L40.688,154.732 L43.377,154.732 L43.377,150.936 L46.695,150.936 L46.695,154.732 L50.791,154.732 L50.791,157.446 L46.695,157.446 L46.695,162.397 C46.695,163.837 47.306,164.558 48.529,164.558 C49.166,164.558 49.861,164.357 50.615,163.954 L51.57,166.719" id="Fill-12" fill="#036DC0"></path>
            <path d="M57.162,157.848 C56.567,158.249 56.177,158.82 55.993,159.557 L62.049,159.557 C61.849,158.786 61.48,158.207 60.944,157.823 C60.408,157.437 59.788,157.245 59.084,157.245 C58.397,157.245 57.757,157.446 57.162,157.848 Z M65.443,161.894 L55.892,161.894 C56.06,162.782 56.433,163.49 57.011,164.017 C57.589,164.545 58.263,164.809 59.034,164.809 C60.458,164.809 61.497,164.256 62.15,163.151 L65.115,163.779 C64.579,165.052 63.784,166.015 62.728,166.668 C61.673,167.322 60.441,167.649 59.034,167.649 C57.224,167.649 55.7,167.029 54.46,165.789 C53.22,164.549 52.6,162.957 52.6,161.014 C52.6,159.071 53.224,157.475 54.473,156.227 C55.721,154.979 57.258,154.355 59.084,154.355 C60.793,154.355 62.263,154.954 63.495,156.152 C64.726,157.349 65.375,158.886 65.443,160.763 L65.443,161.894 L65.443,161.894 Z" id="Fill-13" fill="#036DC0"></path>
            <path d="M80.421,167.272 L77.103,167.272 L77.103,166.141 C76.098,167.146 74.783,167.649 73.157,167.649 C71.65,167.649 70.435,167.159 69.514,166.179 C68.592,165.199 68.132,163.929 68.132,162.371 L68.132,154.732 L71.449,154.732 L71.449,161.667 C71.449,162.556 71.679,163.268 72.14,163.804 C72.601,164.34 73.216,164.608 73.987,164.608 C76.065,164.608 77.103,163.167 77.103,160.286 L77.103,154.732 L80.421,154.732 L80.421,167.272" id="Fill-14" fill="#036DC0"></path>
            <path d="M93.137,154.656 L92.961,157.848 L92.232,157.848 C89.25,157.848 87.759,159.64 87.759,163.226 L87.759,167.272 L84.442,167.272 L84.442,154.732 L87.759,154.732 L87.759,157.018 C88.898,155.376 90.398,154.555 92.257,154.555 C92.643,154.555 92.936,154.589 93.137,154.656" id="Fill-15" fill="#036DC0"></path>
            <path d="M111.181,164.005 L106.657,160.009 C105.602,160.612 105.074,161.383 105.074,162.321 C105.074,163.092 105.392,163.707 106.029,164.168 C106.666,164.629 107.503,164.859 108.542,164.859 C109.514,164.859 110.393,164.575 111.181,164.005 Z M113.443,166.015 C112.136,167.104 110.502,167.649 108.542,167.649 C106.531,167.649 104.91,167.162 103.679,166.191 C102.447,165.219 101.832,163.929 101.832,162.321 C101.832,160.511 102.787,159.096 104.697,158.074 C103.893,157.069 103.49,155.946 103.49,154.706 C103.49,153.332 103.997,152.214 105.011,151.351 C106.025,150.488 107.302,150.057 108.843,150.057 C110.385,150.057 111.616,150.493 112.538,151.364 C113.459,152.235 114.021,153.399 114.222,154.857 L111.105,155.41 C110.988,153.701 110.234,152.846 108.843,152.846 C108.207,152.846 107.688,153.014 107.285,153.349 C106.883,153.684 106.682,154.162 106.682,154.782 C106.682,155.318 106.837,155.816 107.147,156.277 C107.457,156.738 108.031,157.329 108.869,158.048 L112.864,161.542 C113.015,161.023 113.09,160.436 113.09,159.783 L113.09,158.501 L116.031,158.501 L116.031,159.783 C116.031,161.241 115.771,162.531 115.252,163.653 L117.665,165.764 L115.704,168 L113.443,166.015 L113.443,166.015 Z" id="Fill-17" fill="#036DC0"></path>
            <path d="M129.325,163.276 C129.477,164.415 130.339,164.985 131.914,164.985 C132.517,164.985 132.994,164.868 133.346,164.633 C133.698,164.399 133.874,164.097 133.874,163.728 C133.874,163.175 133.413,162.798 132.492,162.597 L129.928,162.07 C128.789,161.835 127.914,161.408 127.303,160.788 C126.691,160.168 126.385,159.406 126.385,158.501 C126.385,157.278 126.85,156.281 127.78,155.51 C128.71,154.74 129.954,154.355 131.511,154.355 C132.969,154.355 134.188,154.698 135.168,155.385 C136.148,156.072 136.747,156.968 136.964,158.074 L133.798,158.703 C133.731,158.183 133.484,157.764 133.057,157.446 C132.63,157.127 132.081,156.968 131.411,156.968 C130.808,156.968 130.373,157.089 130.104,157.332 C129.836,157.576 129.702,157.865 129.702,158.2 C129.702,158.736 130.079,159.087 130.833,159.255 L133.824,159.909 C134.896,160.143 135.713,160.575 136.274,161.203 C136.836,161.831 137.116,162.58 137.116,163.452 C137.116,164.809 136.617,165.848 135.621,166.568 C134.624,167.288 133.288,167.649 131.612,167.649 C130.121,167.649 128.848,167.343 127.792,166.732 C126.736,166.121 126.134,165.195 125.983,163.954 L129.325,163.276" id="Fill-19" fill="#036DC0"></path>
            <path d="M148.475,163.716 C149.195,163.021 149.555,162.12 149.555,161.014 C149.555,159.909 149.195,159.008 148.475,158.313 C147.755,157.618 146.933,157.27 146.012,157.27 C145.057,157.27 144.215,157.613 143.486,158.3 C142.757,158.987 142.393,159.892 142.393,161.014 C142.393,162.137 142.757,163.041 143.486,163.728 C144.215,164.415 145.057,164.759 146.012,164.759 C146.933,164.759 147.755,164.412 148.475,163.716 Z M150.799,156.277 C152.115,157.508 152.772,159.087 152.772,161.014 C152.772,162.941 152.115,164.52 150.799,165.751 C149.484,166.983 147.888,167.599 146.012,167.599 C144.102,167.599 142.485,166.983 141.162,165.751 C139.839,164.52 139.176,162.941 139.176,161.014 C139.176,159.087 139.839,157.508 141.162,156.277 C142.485,155.045 144.102,154.43 146.012,154.43 C147.888,154.43 149.484,155.045 150.799,156.277 L150.799,156.277 Z" id="Fill-20" fill="#036DC0"></path>
            <polygon id="Fill-21" fill="#036DC0" points="155.788 167.272 159.105 167.272 159.105 149.177 155.788 149.177"></polygon>
            <path d="M163.302,167.272 L166.619,167.272 L166.619,154.732 L163.302,154.732 L163.302,167.272 Z M166.393,149.592 C166.778,149.986 166.971,150.451 166.971,150.987 C166.971,151.539 166.778,152 166.393,152.369 C166.007,152.738 165.53,152.921 164.961,152.921 C164.375,152.921 163.892,152.738 163.515,152.369 C163.138,152 162.95,151.539 162.95,150.987 C162.95,150.451 163.143,149.986 163.528,149.592 C163.914,149.198 164.391,149.001 164.961,149.001 C165.53,149.001 166.007,149.198 166.393,149.592 L166.393,149.592 Z" id="Fill-22" fill="#036DC0"></path>
            <path d="M179.035,163.716 C179.755,163.021 180.115,162.12 180.115,161.014 C180.115,159.909 179.755,159.003 179.035,158.3 C178.314,157.596 177.485,157.245 176.547,157.245 C175.524,157.245 174.682,157.588 174.021,158.275 C173.359,158.962 173.028,159.875 173.028,161.014 C173.028,162.154 173.359,163.062 174.021,163.741 C174.682,164.419 175.524,164.759 176.547,164.759 C177.485,164.759 178.314,164.412 179.035,163.716 Z M183.432,167.272 L180.115,167.272 L180.115,166.291 C178.993,167.197 177.61,167.649 175.968,167.649 C174.309,167.649 172.869,167.021 171.646,165.764 C170.422,164.507 169.811,162.924 169.811,161.014 C169.811,159.104 170.427,157.517 171.659,156.251 C172.89,154.987 174.327,154.355 175.968,154.355 C177.627,154.355 179.009,154.815 180.115,155.737 L180.115,149.177 L183.432,149.177 L183.432,167.272 L183.432,167.272 Z" id="Fill-23" fill="#036DC0"></path>
            <path d="M195.672,163.716 C196.391,163.021 196.752,162.12 196.752,161.014 C196.752,159.909 196.391,159.003 195.672,158.3 C194.951,157.596 194.122,157.245 193.183,157.245 C192.161,157.245 191.319,157.588 190.658,158.275 C189.996,158.962 189.665,159.875 189.665,161.014 C189.665,162.154 189.996,163.062 190.658,163.741 C191.319,164.419 192.161,164.759 193.183,164.759 C194.122,164.759 194.951,164.412 195.672,163.716 Z M200.069,167.272 L196.752,167.272 L196.752,166.291 C195.63,167.197 194.247,167.649 192.605,167.649 C190.946,167.649 189.505,167.021 188.283,165.764 C187.059,164.507 186.448,162.924 186.448,161.014 C186.448,159.104 187.064,157.517 188.296,156.251 C189.527,154.987 190.964,154.355 192.605,154.355 C194.263,154.355 195.646,154.815 196.752,155.737 L196.752,154.732 L200.069,154.732 L200.069,167.272 L200.069,167.272 Z" id="Fill-24" fill="#036DC0"></path>
            <path d="M204.266,167.272 L207.583,167.272 L207.583,154.732 L204.266,154.732 L204.266,167.272 Z M207.357,149.592 C207.742,149.986 207.935,150.451 207.935,150.987 C207.935,151.539 207.742,152 207.357,152.369 C206.971,152.738 206.494,152.921 205.924,152.921 C205.339,152.921 204.856,152.738 204.479,152.369 C204.102,152 203.914,151.539 203.914,150.987 C203.914,150.451 204.107,149.986 204.492,149.592 C204.878,149.198 205.355,149.001 205.924,149.001 C206.494,149.001 206.971,149.198 207.357,149.592 L207.357,149.592 Z" id="Fill-25" fill="#036DC0"></path>
            <path d="M220.476,154.656 L220.299,157.848 L219.571,157.848 C216.589,157.848 215.097,159.64 215.097,163.226 L215.097,167.272 L211.78,167.272 L211.78,154.732 L215.097,154.732 L215.097,157.018 C216.237,155.376 217.736,154.555 219.596,154.555 C219.981,154.555 220.275,154.589 220.476,154.656" id="Fill-26" fill="#036DC0"></path>
            <path d="M226.495,157.848 C225.9,158.249 225.51,158.82 225.326,159.557 L231.382,159.557 C231.181,158.786 230.813,158.207 230.277,157.823 C229.741,157.437 229.121,157.245 228.418,157.245 C227.73,157.245 227.089,157.446 226.495,157.848 Z M234.775,161.894 L225.225,161.894 C225.393,162.782 225.766,163.49 226.343,164.017 C226.922,164.545 227.596,164.809 228.367,164.809 C229.791,164.809 230.83,164.256 231.483,163.151 L234.449,163.779 C233.913,165.052 233.117,166.015 232.061,166.668 C231.005,167.322 229.774,167.649 228.367,167.649 C226.557,167.649 225.033,167.029 223.793,165.789 C222.553,164.549 221.933,162.957 221.933,161.014 C221.933,159.071 222.557,157.475 223.805,156.227 C225.053,154.979 226.59,154.355 228.418,154.355 C230.126,154.355 231.596,154.954 232.828,156.152 C234.059,157.349 234.709,158.886 234.775,160.763 L234.775,161.894 L234.775,161.894 Z" id="Fill-27" fill="#036DC0"></path>
            <path d="M190.986,47.787 C188.957,47.275 190.297,45.35 189.367,44.014 C188.392,42.614 186.098,42.182 184.577,41.284 C183.645,40.735 182.811,40.385 183.295,39.628 C183.941,38.613 187.77,38.313 188.898,38.181 C190.704,37.97 194.143,37.236 195.91,37.92 C197.318,38.465 197.437,39.742 197.618,40.972 C197.968,43.341 195.29,48.872 190.986,47.787 Z M189.09,110.141 C186.999,113.222 184.141,118.604 181.528,121.304 C176.315,126.691 176.562,114.262 176.219,112.631 C175.272,108.136 174.232,107.448 172.026,103.653 C169.709,99.668 168.948,95.381 166.712,91.322 C164.255,86.861 159.783,84.71 156.886,80.748 C151.51,73.394 148.59,59.244 155.88,52.15 C160.162,47.983 172.334,42.473 176.926,46.261 C178.335,47.423 182.151,55.414 181.951,57.386 C181.564,61.203 173.804,68.925 171.242,71.004 C163.786,77.052 157.047,80.361 169.474,86.94 C176.628,90.727 188.598,89.751 191.994,98.733 C193.894,103.759 191.692,106.309 189.09,110.141 Z M231.954,78.622 C231.954,76.826 231.954,75.029 231.954,73.233 C231.629,71.75 231.745,70.284 231.36,68.767 C230.849,66.759 230.288,64.794 229.604,62.944 C229.57,64.296 229.402,65.623 229.107,66.876 C228.038,71.408 224.552,74.681 224.214,79.618 C223.838,85.123 226.186,87.343 224.791,92.86 C223.101,99.54 221.767,117.722 213.557,104.95 C211.082,101.099 211.318,95.357 208.245,92.167 C205.488,89.305 200.714,89.801 198.549,85.871 C191.014,72.198 209.585,75.46 215.109,73.804 C220.937,72.056 221.453,67.563 215.088,65.514 C210.36,63.992 202.612,70.682 198.229,67.327 C190.778,61.622 209.406,59.1 207.484,52.547 C206.501,49.196 199.234,50 204.171,47.518 C207.013,46.089 213.826,45.993 217.325,46.106 C216.958,45.797 216.59,45.494 216.223,45.207 C212.47,42.269 209.411,39.068 204.501,37.2 C198.844,35.048 190.271,35.567 182.687,35.66 C181.679,35.723 179.334,35.855 178.235,36.122 C175.484,36.789 172.86,37.164 170.371,38.124 C159.299,42.392 152.252,49.743 147.814,60.914 C146.408,64.454 145.798,68.291 144.846,72.309 C143.525,77.888 144.462,87.995 145.885,92.326 C146.752,94.961 147.391,97.617 148.705,99.872 C154.244,109.38 163.022,117.46 173.339,122.046 C179.408,124.745 191.085,126.995 199.604,124.663 C208.143,122.328 218.521,118.812 223.049,112.499 C225.847,108.599 228.548,102.282 230.172,97.254 C230.85,95.158 230.817,93.273 231.36,90.941 C232.172,87.45 231.954,82.873 231.954,78.622 L231.954,78.622 Z" id="Fill-28" fill="#86BC24"></path>
        </g>
    </g>
</svg>